<svg width="15" height="15" viewBox="0 0 15 15" fill="none" xmlns="http://www.w3.org/2000/svg">
<path fill-rule="evenodd" clip-rule="evenodd" d="M2.57893 0.421068C2.29603 0.147831 1.91713 -0.00336092 1.52383 5.6704e-05C1.13054 0.00347433 0.754317 0.161229 0.476205 0.439341C0.198092 0.717453 0.0403386 1.09367 0.036921 1.48697C0.0335034 1.88026 0.184696 2.25916 0.457933 2.54207L5.39743 7.48157L0.457933 12.4211C0.314667 12.5594 0.200394 12.725 0.12178 12.908C0.0431669 13.091 0.00178736 13.2878 5.66354e-05 13.487C-0.00167409 13.6861 0.0362782 13.8837 0.1117 14.068C0.187121 14.2523 0.298501 14.4198 0.43934 14.5607C0.580179 14.7015 0.747657 14.8129 0.932001 14.8883C1.11635 14.9637 1.31387 15.0017 1.51303 14.9999C1.7122 14.9982 1.90903 14.9568 2.09204 14.8782C2.27504 14.7996 2.44056 14.6853 2.57893 14.5421L7.51843 9.60257L12.4579 14.5421C12.7408 14.8153 13.1197 14.9665 13.513 14.9631C13.9063 14.9597 14.2825 14.8019 14.5607 14.5238C14.8388 14.2457 14.9965 13.8695 14.9999 13.4762C15.0034 13.0829 14.8522 12.704 14.5789 12.4211L9.63943 7.48157L14.5789 2.54207C14.8522 2.25916 15.0034 1.88026 14.9999 1.48697C14.9965 1.09367 14.8388 0.717453 14.5607 0.439341C14.2825 0.161229 13.9063 0.00347433 13.513 5.6704e-05C13.1197 -0.00336092 12.7408 0.147831 12.4579 0.421068L7.51843 5.36057L2.57893 0.421068Z" fill="#F6F6F8" fill-opacity="0.4"/>
</svg>
