<svg width="30" height="30" viewBox="0 0 30 30" fill="none" xmlns="http://www.w3.org/2000/svg">
<path d="M30 15C30 23.2843 23.2843 30 15 30C6.71573 30 0 23.2843 0 15C0 6.71573 6.71573 0 15 0C23.2843 0 30 6.71573 30 15Z" fill="white"/>
<path d="M15 0C6.71234 0 0 6.71234 0 15C0 22.0494 4.83702 27.9 11.363 29.5494C11.2877 29.3617 11.2506 29.0987 11.2506 28.837V26.2864H9.37532C8.36298 26.2864 7.42468 25.837 7.01234 25.0111C6.52468 24.1111 6.44936 22.7234 5.21234 21.8604C4.83702 21.5604 5.13702 21.2604 5.54936 21.2974C6.33702 21.5221 6.97404 22.0481 7.57404 22.8345C8.17404 23.6221 8.43702 23.8098 9.5617 23.8098C10.0864 23.8098 10.9111 23.7728 11.6617 23.6591C12.074 22.6085 12.7864 21.6715 13.6494 21.2221C8.62468 20.6221 6.22468 18.1468 6.22468 14.7715C6.22468 13.3085 6.8617 11.9209 7.91234 10.7209C7.57532 9.55787 7.12468 7.15787 8.06298 6.22085C10.3136 6.22085 11.663 7.68383 12 8.05787C13.1247 7.68255 14.363 7.45787 15.637 7.45787C16.9494 7.45787 18.1494 7.68255 19.274 8.05787C19.6111 7.68255 20.9617 6.22085 23.2111 6.22085C24.1111 7.12085 23.6987 9.55787 23.3234 10.7209C24.374 11.8838 24.974 13.3085 24.974 14.7715C24.974 18.1468 22.6111 20.6221 17.6247 21.1468C19.0123 21.8591 19.9877 23.8838 19.9877 25.3838V28.8C19.9877 28.9123 19.9506 29.0247 19.9506 29.137C25.8 27.1123 30 21.563 30 15C30 6.71234 23.2877 0 15 0Z" fill="black"/>
</svg>
