<svg width="16" height="16" viewBox="0 0 16 16" fill="none" xmlns="http://www.w3.org/2000/svg">
<g clip-path="url(#clip0_329_13160)">
<path fill-rule="evenodd" clip-rule="evenodd" d="M7.99937 0.197021C3.58224 0.197021 0 3.77878 0 8.19739C0 11.7315 2.29207 14.7303 5.47109 15.7886C5.87134 15.8619 6.01721 15.6148 6.01721 15.4026C6.01721 15.2125 6.01025 14.7096 6.00608 14.0422C3.78081 14.5255 3.3113 12.9696 3.3113 12.9696C2.94738 12.0453 2.42286 11.7993 2.42286 11.7993C1.69649 11.3032 2.47785 11.313 2.47785 11.313C3.28083 11.3696 3.70319 12.1376 3.70319 12.1376C4.4168 13.36 5.57583 13.0069 6.03159 12.8021C6.10427 12.2855 6.31104 11.9328 6.53941 11.733C4.76304 11.5306 2.8953 10.8445 2.8953 7.77896C2.8953 6.90525 3.20717 6.19165 3.71891 5.63227C3.63636 5.42992 3.36187 4.6166 3.79757 3.51502C3.79757 3.51502 4.46892 3.29993 5.99729 4.33473C6.63526 4.15743 7.31988 4.06903 8.00008 4.06559C8.67979 4.06837 9.36392 4.15747 10.0029 4.33473C11.5302 3.29993 12.2006 3.51502 12.2006 3.51502C12.6372 4.6166 12.3627 5.42992 12.2807 5.63227C12.7934 6.19165 13.1028 6.90525 13.1028 7.77896C13.1028 10.8524 11.2321 11.5286 9.45034 11.7265C9.73715 11.9736 9.99303 12.4618 9.99303 13.2083C9.99303 14.2775 9.98329 15.1403 9.98329 15.4026C9.98329 15.6167 10.1277 15.8658 10.5333 15.7877C13.7099 14.7273 16 11.731 16 8.19739C16 3.77878 12.418 0.197021 7.99937 0.197021Z" fill="#F6F6F8" fill-opacity="0.4"/>
</g>
<defs>
<clipPath id="clip0_329_13160">
<rect width="16" height="16" fill="white"/>
</clipPath>
</defs>
</svg>
