<svg width="30" height="30" viewBox="0 0 30 30" fill="none" xmlns="http://www.w3.org/2000/svg">
<g clip-path="url(#clip0_172_77)">
<path d="M25.5 0H4.5C2.01472 0 0 2.01472 0 4.5V25.5C0 27.9853 2.01472 30 4.5 30H25.5C27.9853 30 30 27.9853 30 25.5V4.5C30 2.01472 27.9853 0 25.5 0Z" fill="#F6F6F8"/>
<path d="M22.6172 23.4375C25.2539 20.9766 26.4258 16.875 25.7227 12.9492H15.2344V17.2852H21.2109C20.9766 18.6914 20.1562 19.8633 18.9844 20.625L22.6172 23.4375Z" fill="#4285F4"/>
<path d="M5.27344 19.9805C6.04424 21.4989 7.14967 22.8225 8.5064 23.8515C9.86313 24.8805 11.4358 25.5882 13.1057 25.921C14.7757 26.2539 16.4995 26.2033 18.1471 25.7731C19.7947 25.3429 21.3231 24.5443 22.6172 23.4375L18.9844 20.625C15.8789 22.6758 10.7227 21.9141 8.96484 17.1094L5.27344 19.9805Z" fill="#34A853"/>
<path d="M8.96475 17.1094C8.496 15.6445 8.496 14.2969 8.96475 12.832L5.27335 9.96094C3.92569 12.6562 3.51553 16.4648 5.27335 19.9805L8.96475 17.1094Z" fill="#FBBC02"/>
<path d="M8.96484 12.832C10.2539 8.78904 15.7617 6.44529 19.4531 9.90232L22.6758 6.73825C18.1055 2.34372 9.19922 2.5195 5.27344 9.96091L8.96484 12.832Z" fill="#EA4335"/>
</g>
<defs>
<clipPath id="clip0_172_77">
<rect width="30" height="30" rx="15" fill="white"/>
</clipPath>
</defs>
</svg>
