<svg width="16" height="16" viewBox="0 0 16 16" fill="none" xmlns="http://www.w3.org/2000/svg">
<path d="M12.5961 11.596L9.06108 15.132C8.92178 15.2714 8.75638 15.3819 8.57433 15.4574C8.39228 15.5328 8.19714 15.5716 8.00008 15.5716C7.80302 15.5716 7.60788 15.5328 7.42583 15.4574C7.24378 15.3819 7.07838 15.2714 6.93908 15.132L3.40408 11.596C2.80046 10.9924 2.32163 10.2759 1.99492 9.48727C1.66822 8.69866 1.50005 7.85343 1.5 6.99982C1.49995 6.14622 1.66804 5.30097 1.99465 4.51232C2.32127 3.72368 2.80002 3.00709 3.40358 2.40347C4.00713 1.79985 4.72367 1.32102 5.51228 0.994314C6.30089 0.667612 7.14612 0.499436 7.99973 0.49939C8.85333 0.499343 9.69858 0.667427 10.4872 0.994043C11.2759 1.32066 11.9925 1.79941 12.5961 2.40297C13.1998 3.00656 13.6786 3.72315 14.0053 4.51183C14.332 5.3005 14.5002 6.1458 14.5002 6.99947C14.5002 7.85313 14.332 8.69844 14.0053 9.48711C13.6786 10.2758 13.1998 10.9924 12.5961 11.596ZM11.5361 3.46397C10.5983 2.52616 9.32634 1.99831 8.00008 1.99831C6.67382 1.99831 5.40189 2.52516 4.46408 3.46297C3.52627 4.40077 2.99942 5.67271 2.99942 6.99897C2.99942 8.32523 3.52627 9.59716 4.46408 10.535L8.00008 14.07L11.5361 10.536C12.0005 10.0717 12.3689 9.5204 12.6203 8.91369C12.8716 8.30698 13.001 7.65669 13.001 6.99997C13.001 6.34325 12.8716 5.69296 12.6203 5.08625C12.3689 4.47953 12.0005 3.92828 11.5361 3.46397ZM8.00008 8.99997C7.73374 9.00599 7.46888 8.95874 7.22105 8.861C6.97323 8.76325 6.74743 8.61698 6.55691 8.43077C6.36639 8.24455 6.21499 8.02215 6.11161 7.77662C6.00822 7.5311 5.95493 7.26739 5.95486 7.00098C5.9548 6.73457 6.00796 6.47084 6.11122 6.22526C6.21448 5.97968 6.36577 5.7572 6.55619 5.57089C6.74662 5.38459 6.97235 5.2382 7.22012 5.14033C7.4679 5.04246 7.73274 4.99508 7.99908 5.00097C8.52164 5.01252 9.01891 5.22819 9.38445 5.60181C9.74998 5.97542 9.95473 6.47729 9.95486 6.99998C9.95499 7.52267 9.7505 8.02464 9.38515 8.39844C9.0198 8.77223 8.52263 8.98815 8.00008 8.99997Z" fill="#F6F6F8" fill-opacity="0.4"/>
</svg>
