<svg width="282" height="50" viewBox="0 0 282 50" fill="none" xmlns="http://www.w3.org/2000/svg">
<rect width="92" height="50" rx="8" fill="#00E861"/>
<path d="M13.2955 31.5909V24.7727L34.4318 16.3068V23.4659L20.9659 28.125L21.1932 27.7841V28.5795L20.9659 28.2386L34.4318 32.8977V40.0568L13.2955 31.5909ZM53.9844 9.54545L44.6094 44.375H37.9616L47.3366 9.54545H53.9844ZM78.6506 31.5909L57.5142 40.0568V32.8977L70.9801 28.2386L70.7528 28.5795V27.7841L70.9801 28.125L57.5142 23.4659V16.3068L78.6506 24.7727V31.5909Z" fill="#F6F6F8"/>
<path d="M110.068 40.3409C108.676 40.3409 107.445 40.1136 106.375 39.6591C105.314 39.1951 104.481 38.4943 103.875 37.5568C103.269 36.6193 102.966 35.4261 102.966 33.9773C102.966 32.7841 103.17 31.7661 103.577 30.9233C103.984 30.071 104.552 29.375 105.281 28.8352C106.01 28.2955 106.858 27.8835 107.824 27.5994C108.799 27.3153 109.85 27.1307 110.977 27.0455C112.199 26.9508 113.179 26.8371 113.918 26.7045C114.666 26.5625 115.205 26.3684 115.537 26.1222C115.868 25.8665 116.034 25.5303 116.034 25.1136V25.0568C116.034 24.4886 115.816 24.053 115.381 23.75C114.945 23.447 114.386 23.2955 113.705 23.2955C112.956 23.2955 112.346 23.4612 111.872 23.7926C111.408 24.1146 111.129 24.6117 111.034 25.2841H103.818C103.913 23.9583 104.334 22.7367 105.082 21.6193C105.84 20.4924 106.943 19.5928 108.392 18.9205C109.841 18.2386 111.65 17.8977 113.818 17.8977C115.381 17.8977 116.782 18.0824 118.023 18.4517C119.263 18.8116 120.319 19.3182 121.19 19.9716C122.062 20.6155 122.724 21.3731 123.179 22.2443C123.643 23.1061 123.875 24.0436 123.875 25.0568V40H116.545V36.9318H116.375C115.939 37.7462 115.409 38.4044 114.784 38.9062C114.169 39.4081 113.463 39.7727 112.668 40C111.882 40.2273 111.015 40.3409 110.068 40.3409ZM112.625 35.3977C113.222 35.3977 113.78 35.2746 114.301 35.0284C114.831 34.7822 115.262 34.4271 115.594 33.9631C115.925 33.4991 116.091 32.9356 116.091 32.2727V30.4545C115.883 30.5398 115.66 30.6203 115.423 30.696C115.196 30.7718 114.95 30.8428 114.685 30.9091C114.429 30.9754 114.154 31.0369 113.861 31.0938C113.577 31.1506 113.278 31.2027 112.966 31.25C112.36 31.3447 111.863 31.5009 111.474 31.7188C111.096 31.9271 110.812 32.1875 110.622 32.5C110.442 32.803 110.352 33.1439 110.352 33.5227C110.352 34.1288 110.565 34.5928 110.991 34.9148C111.418 35.2367 111.962 35.3977 112.625 35.3977ZM135.462 10.9091V40H127.621V10.9091H135.462ZM149.969 48.6364C147.781 48.6364 145.906 48.3239 144.344 47.6989C142.791 47.0833 141.583 46.2311 140.722 45.142C139.869 44.0625 139.391 42.822 139.287 41.4205H146.844C146.92 41.8845 147.109 42.2585 147.412 42.5426C147.715 42.8267 148.103 43.0303 148.577 43.1534C149.06 43.286 149.599 43.3523 150.196 43.3523C151.209 43.3523 152.047 43.1061 152.71 42.6136C153.383 42.1212 153.719 41.2311 153.719 39.9432V36.25H153.491C153.207 36.9886 152.772 37.6184 152.185 38.1392C151.598 38.6506 150.892 39.0436 150.068 39.3182C149.244 39.5833 148.34 39.7159 147.355 39.7159C145.802 39.7159 144.372 39.3561 143.065 38.6364C141.768 37.9167 140.726 36.7756 139.94 35.2131C139.164 33.6506 138.776 31.6098 138.776 29.0909C138.776 26.4583 139.183 24.3182 139.997 22.6705C140.821 21.0227 141.882 19.8153 143.179 19.0483C144.486 18.2812 145.859 17.8977 147.298 17.8977C148.378 17.8977 149.325 18.0871 150.139 18.4659C150.954 18.8352 151.635 19.3324 152.185 19.9574C152.734 20.5729 153.151 21.25 153.435 21.9886H153.605V18.1818H161.446V39.9432C161.446 41.7898 160.968 43.357 160.011 44.6449C159.064 45.9422 157.729 46.9318 156.006 47.6136C154.282 48.2955 152.27 48.6364 149.969 48.6364ZM150.253 34.1477C150.973 34.1477 151.588 33.9489 152.099 33.5511C152.62 33.1439 153.018 32.5663 153.293 31.8182C153.577 31.0606 153.719 30.1515 153.719 29.0909C153.719 28.0114 153.577 27.0881 153.293 26.321C153.018 25.5445 152.62 24.9527 152.099 24.5455C151.588 24.1288 150.973 23.9205 150.253 23.9205C149.533 23.9205 148.918 24.1288 148.406 24.5455C147.904 24.9527 147.516 25.5445 147.241 26.321C146.976 27.0881 146.844 28.0114 146.844 29.0909C146.844 30.1705 146.976 31.089 147.241 31.8466C147.516 32.5947 147.904 33.1676 148.406 33.5653C148.918 33.9536 149.533 34.1477 150.253 34.1477ZM175.945 40.3977C173.578 40.3977 171.551 39.929 169.866 38.9915C168.18 38.0445 166.888 36.7282 165.988 35.0426C165.088 33.3475 164.638 31.3826 164.638 29.1477C164.638 26.9129 165.088 24.9527 165.988 23.267C166.888 21.572 168.18 20.2557 169.866 19.3182C171.551 18.3712 173.578 17.8977 175.945 17.8977C178.313 17.8977 180.339 18.3712 182.025 19.3182C183.71 20.2557 185.003 21.572 185.903 23.267C186.802 24.9527 187.252 26.9129 187.252 29.1477C187.252 31.3826 186.802 33.3475 185.903 35.0426C185.003 36.7282 183.71 38.0445 182.025 38.9915C180.339 39.929 178.313 40.3977 175.945 40.3977ZM176.002 34.6023C176.665 34.6023 177.238 34.3797 177.721 33.9347C178.204 33.4896 178.578 32.8551 178.843 32.0312C179.108 31.2074 179.241 30.2273 179.241 29.0909C179.241 27.9451 179.108 26.965 178.843 26.1506C178.578 25.3267 178.204 24.6922 177.721 24.2472C177.238 23.8021 176.665 23.5795 176.002 23.5795C175.301 23.5795 174.7 23.8021 174.198 24.2472C173.696 24.6922 173.313 25.3267 173.048 26.1506C172.782 26.965 172.65 27.9451 172.65 29.0909C172.65 30.2273 172.782 31.2074 173.048 32.0312C173.313 32.8551 173.696 33.4896 174.198 33.9347C174.7 34.3797 175.301 34.6023 176.002 34.6023ZM193.907 40L188.452 18.1818H196.293L198.793 31.4773H198.964L201.748 18.1818H209.362L212.259 31.3636H212.43L214.816 18.1818H222.657L217.202 40H208.737L205.668 28.2955H205.441L202.373 40H193.907ZM231.123 40.3409C229.731 40.3409 228.5 40.1136 227.43 39.6591C226.369 39.1951 225.536 38.4943 224.93 37.5568C224.324 36.6193 224.021 35.4261 224.021 33.9773C224.021 32.7841 224.224 31.7661 224.631 30.9233C225.039 30.071 225.607 29.375 226.336 28.8352C227.065 28.2955 227.913 27.8835 228.879 27.5994C229.854 27.3153 230.905 27.1307 232.032 27.0455C233.254 26.9508 234.234 26.8371 234.972 26.7045C235.72 26.5625 236.26 26.3684 236.592 26.1222C236.923 25.8665 237.089 25.5303 237.089 25.1136V25.0568C237.089 24.4886 236.871 24.053 236.435 23.75C236 23.447 235.441 23.2955 234.759 23.2955C234.011 23.2955 233.4 23.4612 232.927 23.7926C232.463 24.1146 232.183 24.6117 232.089 25.2841H224.873C224.968 23.9583 225.389 22.7367 226.137 21.6193C226.895 20.4924 227.998 19.5928 229.447 18.9205C230.896 18.2386 232.704 17.8977 234.873 17.8977C236.435 17.8977 237.837 18.0824 239.077 18.4517C240.318 18.8116 241.374 19.3182 242.245 19.9716C243.116 20.6155 243.779 21.3731 244.234 22.2443C244.698 23.1061 244.93 24.0436 244.93 25.0568V40H237.6V36.9318H237.43C236.994 37.7462 236.464 38.4044 235.839 38.9062C235.223 39.4081 234.518 39.7727 233.722 40C232.936 40.2273 232.07 40.3409 231.123 40.3409ZM233.68 35.3977C234.276 35.3977 234.835 35.2746 235.356 35.0284C235.886 34.7822 236.317 34.4271 236.648 33.9631C236.98 33.4991 237.146 32.9356 237.146 32.2727V30.4545C236.937 30.5398 236.715 30.6203 236.478 30.696C236.251 30.7718 236.004 30.8428 235.739 30.9091C235.484 30.9754 235.209 31.0369 234.915 31.0938C234.631 31.1506 234.333 31.2027 234.021 31.25C233.415 31.3447 232.917 31.5009 232.529 31.7188C232.15 31.9271 231.866 32.1875 231.677 32.5C231.497 32.803 231.407 33.1439 231.407 33.5227C231.407 34.1288 231.62 34.5928 232.046 34.9148C232.472 35.2367 233.017 35.3977 233.68 35.3977ZM252.668 48.1818C251.768 48.1818 250.911 48.1108 250.097 47.9688C249.282 47.8362 248.567 47.6515 247.952 47.4148L249.656 41.8466C250.3 42.0739 250.887 42.2206 251.418 42.2869C251.957 42.3532 252.417 42.3153 252.795 42.1733C253.184 42.0313 253.463 41.7614 253.634 41.3636L253.804 40.9659L246.134 18.1818H254.315L257.838 33.2955H258.065L261.645 18.1818H269.884L261.929 41.8182C261.531 43.0208 260.954 44.1004 260.196 45.0568C259.448 46.0227 258.463 46.785 257.241 47.3438C256.02 47.9025 254.495 48.1818 252.668 48.1818ZM275.008 40.4545C273.909 40.4545 272.967 40.071 272.181 39.304C271.405 38.5275 271.021 37.5852 271.031 36.4773C271.021 35.3977 271.405 34.4744 272.181 33.7074C272.967 32.9403 273.909 32.5568 275.008 32.5568C276.049 32.5568 276.968 32.9403 277.763 33.7074C278.568 34.4744 278.976 35.3977 278.985 36.4773C278.976 37.2159 278.781 37.8883 278.403 38.4943C278.033 39.0909 277.55 39.5691 276.954 39.929C276.357 40.2794 275.709 40.4545 275.008 40.4545Z" fill="#F6F6F8"/>
</svg>
