<svg width="40" height="23" viewBox="0 0 40 23" fill="none" xmlns="http://www.w3.org/2000/svg">
<g clip-path="url(#clip0_58_555)">
<g clip-path="url(#clip1_58_555)">
<path d="M39.0123 0H0.987654C0.442188 0 0 0.444934 0 0.993789V21.8634C0 22.4122 0.442188 22.8571 0.987654 22.8571H39.0123C39.5578 22.8571 40 22.4122 40 21.8634V0.993789C40 0.444934 39.5578 0 39.0123 0Z" fill="#00E861"/>
<path d="M11.6612 16.0462L6.92036 11.4543L11.6612 6.78034C11.7236 6.66759 11.7548 6.56509 11.7548 6.44209C11.7548 6.40109 11.7444 6.37035 11.7444 6.32935C11.7236 6.16535 11.6612 6.00135 11.5364 5.89885C11.4325 5.79635 11.3077 5.73486 11.1622 5.71436H11.1206C10.9854 5.71436 10.8607 5.7861 10.7463 5.83735L5.71436 10.8803V12.0283L10.7671 17.0507C10.8815 17.1122 10.975 17.1429 11.0894 17.1429C11.131 17.1429 11.1622 17.1327 11.2038 17.1327C11.3701 17.1122 11.5364 17.0507 11.6404 16.9277C11.7444 16.8047 11.8275 16.6612 11.8275 16.4972C11.8275 16.3332 11.7652 16.1692 11.6612 16.0462ZM15.7999 15.6567C15.9246 15.7797 16.0702 15.8412 16.2365 15.8412C16.3821 15.8412 16.5484 15.7797 16.6732 15.6567L24.2627 8.17432C24.3875 8.07182 24.4498 7.90782 24.4498 7.74382C24.4498 7.57983 24.3875 7.41583 24.2627 7.31333C24.1379 7.19033 23.9716 7.12883 23.826 7.12883C23.6597 7.12883 23.4933 7.19033 23.3894 7.31333L15.7999 14.7957C15.6751 14.9187 15.6127 15.0622 15.6127 15.2262C15.6127 15.3902 15.6751 15.5337 15.7999 15.6567ZM28.3389 6.81109L33.0798 11.403L28.3389 16.0769C28.2766 16.1897 28.2454 16.2922 28.2454 16.4152C28.2454 16.4562 28.2558 16.4869 28.2558 16.5279C28.2766 16.6919 28.3389 16.8559 28.4637 16.9584C28.5677 17.0609 28.6924 17.1224 28.838 17.1429H28.8796C29.0147 17.1429 29.1395 17.0712 29.2538 17.0199L34.2858 11.977V10.829L29.233 5.8066C29.1187 5.74511 29.0251 5.71436 28.9108 5.71436C28.8692 5.71436 28.838 5.72461 28.7964 5.72461C28.63 5.7451 28.4637 5.8066 28.3597 5.9296C28.2558 6.0526 28.1726 6.1961 28.1726 6.3601C28.1726 6.52409 28.235 6.68809 28.3389 6.81109Z" fill="#F6F6F8"/>
</g>
</g>
<defs>
<clipPath id="clip0_58_555">
<rect width="40" height="22.8571" fill="white"/>
</clipPath>
<clipPath id="clip1_58_555">
<rect width="40" height="22.8571" fill="white"/>
</clipPath>
</defs>
</svg>
