<svg width="224" height="40" viewBox="0 0 224 40" fill="none" xmlns="http://www.w3.org/2000/svg">
<g clip-path="url(#clip0_2_29)">
<g clip-path="url(#clip1_2_29)">
<path d="M68.2716 0H1.7284C0.773829 0 0 0.778635 0 1.73913V38.2609C0 39.2214 0.773829 40 1.7284 40H68.2716C69.2262 40 70 39.2214 70 38.2609V1.73913C70 0.778635 69.2262 0 68.2716 0Z" fill="#00E861"/>
<path d="M20.407 28.0807L12.1105 20.0448L20.407 11.8655C20.5161 11.6682 20.5707 11.4888 20.5707 11.2735C20.5707 11.2018 20.5525 11.148 20.5525 11.0762C20.5161 10.7892 20.407 10.5022 20.1887 10.3229C20.0067 10.1435 19.7884 10.0359 19.5337 10H19.4609C19.2244 10 19.006 10.1256 18.8059 10.2152L10 19.0404V21.0493L18.8423 29.8386C19.0424 29.9462 19.2062 30 19.4063 30C19.4791 30 19.5337 29.9821 19.6064 29.9821C19.8975 29.9462 20.1887 29.8386 20.3706 29.6233C20.5525 29.4081 20.6981 29.157 20.6981 28.87C20.6981 28.583 20.5889 28.296 20.407 28.0807ZM27.6497 27.3991C27.868 27.6144 28.1227 27.722 28.4138 27.722C28.6685 27.722 28.9596 27.6144 29.178 27.3991L42.4596 14.3049C42.6779 14.1256 42.7871 13.8386 42.7871 13.5516C42.7871 13.2646 42.6779 12.9776 42.4596 12.7982C42.2413 12.583 41.9502 12.4753 41.6954 12.4753C41.4043 12.4753 41.1132 12.583 40.9313 12.7982L27.6497 25.8924C27.4313 26.1076 27.3222 26.3587 27.3222 26.6457C27.3222 26.9327 27.4313 27.1839 27.6497 27.3991ZM49.593 11.9193L57.8895 19.9552L49.593 28.1345C49.4839 28.3318 49.4293 28.5112 49.4293 28.7265C49.4293 28.7982 49.4475 28.852 49.4475 28.9238C49.4839 29.2108 49.593 29.4978 49.8113 29.6771C49.9933 29.8565 50.2116 29.9641 50.4663 30H50.5391C50.7756 30 50.994 29.8744 51.1941 29.7848L60 20.9596V18.9507L51.1577 10.1614C50.9576 10.0538 50.7938 10 50.5937 10C50.5209 10 50.4663 10.0179 50.3936 10.0179C50.1025 10.0538 49.8113 10.1614 49.6294 10.3767C49.4475 10.5919 49.3019 10.843 49.3019 11.13C49.3019 11.417 49.4111 11.704 49.593 11.9193Z" fill="#F6F6F8"/>
</g>
<path d="M84.76 22.24H96.64V30.04H99.04V16.6C99.04 16.4 99 16.04 98.72 15.76L91.56 8.48C91.36 8.28 91.04 8.12 90.64 8.12C90.4 8.12 90.08 8.2 89.84 8.48L82.76 15.72C82.64 15.84 82.4 16.16 82.4 16.52V30.04H84.76V22.24ZM84.8 20V17.04L90.68 11.08L96.64 17.08V20H84.8ZM109.482 27.08V5.64H107.082V27.6C107.082 27.92 107.202 28.2 107.442 28.44L108.682 29.68C108.922 29.92 109.202 30.04 109.522 30.04H111.962V27.64H110.002L109.482 27.08ZM130.803 24.4V30.88L129.283 32.4H123.803L121.843 30.44L120.163 32.12L122.483 34.44C122.723 34.68 123.043 34.8 123.323 34.8H129.763C130.083 34.8 130.443 34.64 130.603 34.44L132.843 32.2C133.083 31.96 133.203 31.64 133.203 31.36V16.52C133.203 16.2 133.043 15.84 132.843 15.68L130.403 13.2C130.163 12.96 129.843 12.88 129.563 12.88H123.523C123.203 12.88 122.843 13 122.683 13.2L117.843 18.08C117.603 18.32 117.483 18.64 117.483 18.92V21.6C117.483 21.92 117.643 22.28 117.843 22.44L122.563 27.16C122.803 27.4 123.123 27.52 123.403 27.52H127.203C127.523 27.52 127.883 27.36 128.043 27.16L130.803 24.4ZM130.803 21.04L126.723 25.12H123.883L119.883 21.12V19.4L124.003 15.28H129.083L130.803 17V21.04ZM141.485 17.04L143.205 15.28H149.725L151.285 17.04V25.92L149.685 27.6H143.205L141.485 25.92V17.04ZM139.485 15.72C139.365 15.84 139.085 16.12 139.085 16.52V26.4C139.085 26.64 139.125 27 139.445 27.28L141.925 29.6C142.085 29.72 142.365 29.88 142.725 29.88H150.165H150.305C150.505 29.88 150.785 29.86 151.005 29.6L153.325 27.24C153.445 27.12 153.685 26.8 153.685 26.4V16.6C153.685 16.4 153.605 16.08 153.365 15.84L151.125 13.32C150.965 13.16 150.645 12.92 150.245 12.92H142.725C142.565 12.92 142.205 12.92 141.925 13.2L139.485 15.72ZM169.046 25.72L172.966 29.68C173.206 29.92 173.526 30.08 173.806 30.08C174.126 30.08 174.406 29.92 174.646 29.72L177.086 27.36C177.326 27.12 177.446 26.84 177.446 26.48V8.12H175.046V25.96L173.806 27.16L170.286 23.56V17.92H167.886V23.48L164.406 27.16L163.166 26V8.12H160.806V26.48C160.806 26.8 160.926 27.08 161.166 27.32L163.566 29.72C163.806 29.96 164.086 30.08 164.406 30.08C164.686 30.08 165.006 29.96 165.246 29.72L169.046 25.72ZM194.408 27.64L186.328 27.68L184.648 25.88V24.4L186.368 22.64H194.408V27.64ZM196.808 27.68V16.52C196.808 16.32 196.728 16 196.448 15.72L194.088 13.32C193.968 13.2 193.648 12.96 193.248 12.96H184.608V15.32H192.768L194.408 17V20.32H185.848C185.648 20.32 185.288 20.36 185.008 20.64L182.648 23.08C182.528 23.2 182.288 23.52 182.288 23.92V26.32C182.288 26.48 182.368 26.88 182.648 27.16L184.968 29.64C185.088 29.76 185.408 30 185.808 30H199.248V27.68H196.808ZM210.689 28.88L204.129 35.44L205.809 37.12L218.089 24.84C218.329 24.6 218.449 24.32 218.449 24V12.96H216.049V23.52L212.409 27.16L206.289 21.04V12.96H203.889V21.52C203.889 21.84 204.009 22.12 204.249 22.36L210.689 28.88Z" fill="#F6F6F8"/>
</g>
<defs>
<clipPath id="clip0_2_29">
<rect width="224" height="40" fill="white"/>
</clipPath>
<clipPath id="clip1_2_29">
<rect width="70" height="40" fill="white"/>
</clipPath>
</defs>
</svg>
