<svg width="24" height="10" viewBox="0 0 24 10" fill="none" xmlns="http://www.w3.org/2000/svg">
<path d="M4.99633 8.87876L1.01402 5.02154L4.99633 1.09544C5.04873 1.00073 5.07493 0.914631 5.07493 0.811313C5.07493 0.776873 5.06619 0.751044 5.06619 0.716604C5.04873 0.578846 4.99633 0.441088 4.89153 0.35499C4.8042 0.268891 4.6994 0.217232 4.57714 0.200012H4.54221C4.42867 0.200012 4.32388 0.260281 4.22781 0.30333L0.000976562 4.53938V5.50369L4.24528 9.72252C4.34134 9.77418 4.41994 9.80001 4.51601 9.80001C4.55094 9.80001 4.57714 9.7914 4.61207 9.7914C4.7518 9.77418 4.89153 9.72252 4.97886 9.6192C5.06619 9.51589 5.13606 9.39535 5.13606 9.25759C5.13606 9.11983 5.08366 8.98207 4.99633 8.87876ZM8.47281 8.55158C8.57761 8.6549 8.69988 8.70656 8.83961 8.70656C8.96187 8.70656 9.1016 8.6549 9.2064 8.55158L15.5816 2.26638C15.6864 2.18028 15.7388 2.04252 15.7388 1.90477C15.7388 1.76701 15.6864 1.62925 15.5816 1.54315C15.4768 1.43983 15.3371 1.38817 15.2148 1.38817C15.0751 1.38817 14.9353 1.43983 14.848 1.54315L8.47281 7.82835C8.36802 7.93167 8.31562 8.05221 8.31562 8.18997C8.31562 8.32773 8.36802 8.44826 8.47281 8.55158ZM19.0056 1.12127L22.9879 4.97849L19.0056 8.90459C18.9532 8.9993 18.927 9.08539 18.927 9.18871C18.927 9.22315 18.9358 9.24898 18.9358 9.28342C18.9532 9.42118 19.0056 9.55894 19.1104 9.64503C19.1978 9.73113 19.3026 9.78279 19.4248 9.80001H19.4597C19.5733 9.80001 19.6781 9.73974 19.7741 9.69669L24.001 5.46064V4.49634L19.7567 0.277501C19.6606 0.225842 19.582 0.200012 19.4859 0.200012C19.451 0.200012 19.4248 0.208622 19.3899 0.208622C19.2502 0.225842 19.1104 0.277501 19.0231 0.380819C18.9358 0.484138 18.8659 0.604676 18.8659 0.742434C18.8659 0.880192 18.9183 1.01795 19.0056 1.12127Z" fill="#00E861"/>
</svg>
