<svg width="20" height="20" viewBox="0 0 20 20" fill="none" xmlns="http://www.w3.org/2000/svg">
<path d="M11.001 18V20H9.00101V18H1.00101C0.735791 18 0.481437 17.8946 0.2939 17.7071C0.106364 17.5196 0.00100708 17.2652 0.00100708 17V1C0.00100708 0.734786 0.106364 0.480432 0.2939 0.292896C0.481437 0.10536 0.735791 2.80864e-06 1.00101 2.80864e-06H7.00101C7.56859 -0.000670604 8.12979 0.119759 8.64713 0.35325C9.16446 0.586741 9.62603 0.92792 10.001 1.354C10.376 0.92792 10.8376 0.586741 11.3549 0.35325C11.8722 0.119759 12.4334 -0.000670604 13.001 2.80864e-06H19.001C19.2662 2.80864e-06 19.5206 0.10536 19.7081 0.292896C19.8957 0.480432 20.001 0.734786 20.001 1V17C20.001 17.2652 19.8957 17.5196 19.7081 17.7071C19.5206 17.8946 19.2662 18 19.001 18H11.001ZM18.001 16V2H13.001C12.4706 2 11.9619 2.21072 11.5868 2.58579C11.2117 2.96086 11.001 3.46957 11.001 4V16H18.001ZM9.00101 16V4C9.00101 3.46957 8.79029 2.96086 8.41522 2.58579C8.04015 2.21072 7.53144 2 7.00101 2H2.00101V16H9.00101Z" fill="#00E861"/>
</svg>
