<svg width="26" height="12" viewBox="0 0 26 12" fill="none" xmlns="http://www.w3.org/2000/svg">
<path d="M5.99633 9.87876L2.01402 6.02154L5.99633 2.09544C6.04873 2.00073 6.07493 1.91463 6.07493 1.81131C6.07493 1.77687 6.06619 1.75104 6.06619 1.7166C6.04873 1.57885 5.99633 1.44109 5.89153 1.35499C5.8042 1.26889 5.6994 1.21723 5.57714 1.20001H5.54221C5.42867 1.20001 5.32388 1.26028 5.22781 1.30333L1.00098 5.53938V6.50369L5.24528 10.7225C5.34134 10.7742 5.41994 10.8 5.51601 10.8C5.55094 10.8 5.57714 10.7914 5.61207 10.7914C5.7518 10.7742 5.89153 10.7225 5.97886 10.6192C6.06619 10.5159 6.13606 10.3953 6.13606 10.2576C6.13606 10.1198 6.08366 9.98208 5.99633 9.87876ZM9.47281 9.55158C9.57761 9.6549 9.69988 9.70656 9.83961 9.70656C9.96187 9.70656 10.1016 9.6549 10.2064 9.55158L16.5816 3.26638C16.6864 3.18028 16.7388 3.04252 16.7388 2.90477C16.7388 2.76701 16.6864 2.62925 16.5816 2.54315C16.4768 2.43983 16.3371 2.38817 16.2148 2.38817C16.0751 2.38817 15.9353 2.43983 15.848 2.54315L9.47281 8.82835C9.36802 8.93167 9.31562 9.05221 9.31562 9.18997C9.31562 9.32773 9.36802 9.44826 9.47281 9.55158ZM20.0056 2.12127L23.9879 5.97849L20.0056 9.90459C19.9532 9.9993 19.927 10.0854 19.927 10.1887C19.927 10.2232 19.9358 10.249 19.9358 10.2834C19.9532 10.4212 20.0056 10.5589 20.1104 10.645C20.1978 10.7311 20.3026 10.7828 20.4248 10.8H20.4597C20.5733 10.8 20.6781 10.7397 20.7741 10.6967L25.001 6.46064V5.49634L20.7567 1.2775C20.6606 1.22584 20.582 1.20001 20.4859 1.20001C20.451 1.20001 20.4248 1.20862 20.3899 1.20862C20.2502 1.22584 20.1104 1.2775 20.0231 1.38082C19.9358 1.48414 19.8659 1.60468 19.8659 1.74243C19.8659 1.88019 19.9183 2.01795 20.0056 2.12127Z" fill="#F6F6F8" fill-opacity="0.4"/>
<path d="M6.14907 9.74965L6.14264 9.74203L6.13548 9.7351L2.30018 6.02027L6.13674 2.23786L6.15733 2.21756L6.17133 2.19226C6.2369 2.07375 6.27493 1.9546 6.27493 1.81131C6.27493 1.7794 6.27094 1.75208 6.26881 1.73744L6.26849 1.73528C6.26619 1.71939 6.26619 1.71754 6.26619 1.71665V1.7166V1.70398L6.26461 1.69145C6.24411 1.52981 6.18027 1.33766 6.02568 1.20645C5.90873 1.09363 5.76659 1.02472 5.60503 1.00197L5.59115 1.00001H5.57714H5.54221C5.45052 1.00001 5.36964 1.02428 5.30575 1.04921C5.26481 1.06519 5.21814 1.08713 5.18253 1.10387C5.16821 1.1106 5.15568 1.11649 5.14602 1.12082L5.11232 1.13592L5.08624 1.16206L0.859401 5.39812L0.800977 5.45667V5.53938V6.50369V6.58689L0.859981 6.64554L5.10428 10.8644L5.12492 10.8849L5.15056 10.8987C5.26504 10.9602 5.37656 11 5.51601 11C5.54775 11 5.57495 10.9962 5.58978 10.9941L5.59193 10.9938C5.60825 10.9915 5.61049 10.9914 5.61207 10.9914H5.62435L5.63653 10.9899C5.8013 10.9696 5.99855 10.9057 6.13161 10.7483C6.23112 10.6306 6.33606 10.4648 6.33606 10.2576C6.33606 10.0711 6.26596 9.88793 6.14907 9.74965ZM19.8529 2.25038L19.8593 2.25799L19.8665 2.26493L23.7018 5.97975L19.8652 9.76216L19.8446 9.78246L19.8306 9.80777C19.7651 9.92628 19.727 10.0454 19.727 10.1887C19.727 10.2206 19.731 10.248 19.7331 10.2626L19.7335 10.2647C19.7358 10.2806 19.7358 10.2825 19.7358 10.2834V10.2834V10.296L19.7373 10.3086C19.7578 10.4702 19.8217 10.6624 19.9763 10.7936C20.0932 10.9064 20.2354 10.9753 20.3969 10.9981L20.4108 11H20.4248H20.4597C20.5514 11 20.6323 10.9757 20.6962 10.9508C20.7371 10.9348 20.7838 10.9129 20.8194 10.8962C20.8337 10.8894 20.8463 10.8835 20.8559 10.8792L20.8896 10.8641L20.9157 10.838L25.1426 6.60191L25.201 6.54336V6.46064V5.49634V5.41314L25.142 5.35449L20.8977 1.13565L20.877 1.11514L20.8514 1.10136C20.7369 1.03979 20.6254 1.00001 20.4859 1.00001C20.4542 1.00001 20.427 1.00387 20.4122 1.00597L20.41 1.00627C20.3937 1.00857 20.3915 1.00862 20.3899 1.00862H20.3776L20.3654 1.01012C20.2007 1.03043 20.0034 1.0943 19.8703 1.25171C19.7708 1.36944 19.6659 1.53518 19.6659 1.74243C19.6659 1.92893 19.736 2.11209 19.8529 2.25038ZM9.3324 9.69401C9.47241 9.83204 9.6443 9.90656 9.83961 9.90656C10.0139 9.90656 10.2042 9.83458 10.3468 9.69401L16.7162 3.4145C16.8714 3.28252 16.9388 3.08579 16.9388 2.90477C16.9388 2.72353 16.8712 2.52654 16.7157 2.39456C16.5738 2.25805 16.3865 2.18817 16.2148 2.18817C16.0337 2.18817 15.8356 2.25355 15.7018 2.40644L9.3324 8.68593C9.19237 8.82399 9.11562 8.99475 9.11562 9.18997C9.11562 9.38519 9.19237 9.55595 9.3324 9.69401Z" stroke="#F6F6F8" stroke-opacity="0.4" stroke-width="0.4"/>
</svg>
